<?xml version="1.0" encoding="UTF-8"?>
<svg version="1.1" xmlns="http://www.w3.org/2000/svg" width="50" height="50">
<path d="M0 0 C1.30336304 -0.01073296 1.30336304 -0.01073296 2.63305664 -0.02168274 C4.46532162 -0.02944745 6.29767937 -0.02447358 8.12988281 -0.00756836 C10.92951255 0.01166388 13.72418017 -0.02774317 16.5234375 -0.07226562 C18.30729461 -0.07255599 20.09115627 -0.06941581 21.875 -0.0625 C23.12518921 -0.08542366 23.12518921 -0.08542366 24.40063477 -0.10881042 C28.80617486 -0.02070528 30.4676938 0.30900093 33.96679688 3.21533203 C36.59566919 7.0312992 36.62823901 10.69137839 36.53125 15.203125 C36.53129028 16.00403061 36.53133057 16.80493622 36.53137207 17.63011169 C36.52603365 19.31525565 36.50852276 21.0004004 36.47949219 22.68530273 C36.43756427 25.2577757 36.43843413 27.82763276 36.4453125 30.40039062 C36.43482096 32.04298685 36.42188304 33.68556966 36.40625 35.328125 C36.40604858 36.09282608 36.40584717 36.85752716 36.40563965 37.645401 C36.3060506 42.15814019 35.75489589 45.12811139 32.9375 48.69921875 C29.12331818 51.24200663 25.96929517 51.04052565 21.54296875 51.0703125 C20.71799393 51.07934097 19.8930191 51.08836945 19.04304504 51.09767151 C17.29720692 51.11217643 15.5513144 51.12106135 13.80541992 51.12475586 C11.14472814 51.1366307 8.48637262 51.18579146 5.82617188 51.23632812 C4.12761545 51.24579533 2.42904482 51.25302894 0.73046875 51.2578125 C-0.45576836 51.28711098 -0.45576836 51.28711098 -1.66596985 51.31700134 C-5.50078462 51.2859524 -8.35847202 50.93917154 -11.56445312 48.73071289 C-14.94292194 44.63078646 -14.9189508 41.80312714 -14.82421875 36.63671875 C-14.82758743 35.76781006 -14.83095612 34.89890137 -14.83442688 34.00366211 C-14.83412862 32.17132635 -14.81893471 30.33894001 -14.78979492 28.50683594 C-14.75011639 25.70743041 -14.76909184 22.91276476 -14.79492188 20.11328125 C-14.78736224 18.32940877 -14.77640825 16.54554677 -14.76171875 14.76171875 C-14.76870285 13.92825928 -14.77568695 13.0947998 -14.78288269 12.23608398 C-14.68474571 8.18256622 -14.35091056 6.14011406 -12.08520508 2.67651367 C-7.97121598 -0.01464194 -4.82335679 -0.04041805 0 0 Z " fill="#2042BB" transform="translate(14.0625,-0.69921875)"/>
<path d="M0 0 C2.26788173 1.15913955 4.19600208 2.19600208 6 4 C6 3.34 6 2.68 6 2 C9.90694321 1.82241167 12.70611329 1.76486259 16 4 C18.46122068 7.69183102 18.79294038 10.71474772 18 15 C14.43887844 19.82474533 9.01780613 22.81877651 4 26 C3.34 25.67 2.68 25.34 2 25 C1.34 26.32 0.68 27.64 0 29 C-12.40758294 17.34439179 -12.40758294 17.34439179 -13.375 10.25 C-12.8528401 5.7246142 -11.15770622 4.2328897 -8 1 C-5.17998673 -0.41000664 -3.12992745 -0.24548451 0 0 Z " fill="#ECEEF9" transform="translate(22,10)"/>
<path d="M0 0 C3.90694321 -0.17758833 6.70611329 -0.23513741 10 2 C12.46122068 5.69183102 12.79294038 8.71474772 12 13 C8.43887844 17.82474533 3.01780613 20.81877651 -2 24 C-3 21 -3 21 -2.22265625 19.01953125 C-1.64837891 17.92705078 -1.64837891 17.92705078 -1.0625 16.8125 C1.59195067 11.1923872 2.0060493 6.01814791 0 0 Z " fill="#F8F9FD" transform="translate(28,12)"/>
<path d="M0 0 C2.9375 2.0625 2.9375 2.0625 5 5 C5.06641554 8.85210127 4.87229157 10.99848005 2.3125 13.9375 C-0.73602877 15.33817538 -2.67926952 15.4842732 -6 15 C-8.375 13.4375 -8.375 13.4375 -10 11 C-10.56783945 7.02512383 -10.62340519 4.93510779 -8.375 1.5625 C-5.24316508 -0.49791771 -3.68455227 -0.6767545 0 0 Z " fill="#3150C0" transform="translate(22,13)"/>
<path d="M0 0 C3.3962677 1.46657014 4.67850666 2.34170411 6.3125 5.6875 C6.6528125 6.8321875 6.6528125 6.8321875 7 8 C6.01 8 5.02 8 4 8 C3.401875 7.34 2.80375 6.68 2.1875 6 C0.10850447 3.72195148 0.10850447 3.72195148 -3.0625 3.5625 C-5.94317 3.7819367 -5.94317 3.7819367 -7.8125 5.1875 C-9.27538036 7.42031739 -9.64505955 9.37344067 -10 12 C-10.99 12.33 -11.98 12.66 -13 13 C-13.34751969 10.08083462 -13.53280018 7.86804524 -11.95703125 5.30078125 C-8.1090494 0.64032229 -5.99329884 -0.47006265 0 0 Z " fill="#E1E5F5" transform="translate(22,10)"/>
<path d="M0 0 C4.55555556 0.55555556 4.55555556 0.55555556 6 2 C6.1875 4.4375 6.1875 4.4375 6 7 C5.34 7.66 4.68 8.32 4 9 C1.375 8.625 1.375 8.625 -1 8 C-1.625 5.125 -1.625 5.125 -2 2 C-1.34 1.34 -0.68 0.68 0 0 Z " fill="#F2F4FB" transform="translate(17,16)"/>
</svg>
